<svg width="76" height="70" viewBox="0 0 76 70" fill="none" xmlns="http://www.w3.org/2000/svg">
<path d="M57.4268 26.6585L53.8728 29.446C46.3007 35.3849 41.8781 44.4743 41.8781 54.0976L48.7289 47.381C54.2921 41.9269 57.4268 34.4494 57.4268 26.6585Z" fill="#E462AB"/>
<path d="M66.5698 43.1557L66.2329 42.7863L66.5698 43.1557ZM51.1842 2.54762L50.924 2.12071L51.1842 2.54762ZM38.5244 16.2927L38.1143 16.5788L38.5763 17.2408L38.9632 16.5324L38.5244 16.2927ZM26.5262 3.41435L26.8282 3.0159L26.5262 3.41435ZM9.26039 42.4964L9.59554 42.1253L9.26039 42.4964ZM34.2561 65.0732L33.921 65.4442L34.3427 65.8251L34.6668 65.3584L34.2561 65.0732ZM53.8728 29.446L54.1813 29.8395L53.8728 29.446ZM57.0743 22.5713C56.8375 22.4292 56.5304 22.506 56.3883 22.7428C56.2463 22.9795 56.323 23.2867 56.5598 23.4287L57.0743 22.5713ZM48.7289 47.381L49.0789 47.7381L48.7289 47.381ZM10.6901 3.99018L10.9968 4.38506L10.6901 3.99018ZM67.3371 5.08493L67.6886 4.72936L67.3371 5.08493ZM38.8613 69.1012L66.9067 43.5252L66.2329 42.7863L38.1875 68.3623L38.8613 69.1012ZM50.924 2.12071C45.2021 5.60924 41.6598 9.50934 38.0856 16.053L38.9632 16.5324C42.466 10.1194 45.8936 6.35883 51.4445 2.97453L50.924 2.12071ZM38.9344 16.0066C34.9179 10.2505 31.5228 6.57454 26.8282 3.0159L26.2241 3.81281C30.8185 7.29555 34.1442 10.8892 38.1143 16.5788L38.9344 16.0066ZM8.92525 42.8675L33.921 65.4442L34.5912 64.7021L9.59554 42.1253L8.92525 42.8675ZM34.6668 65.3584L42.2887 54.3828L41.4674 53.8124L33.8454 64.788L34.6668 65.3584ZM54.1813 29.8395L57.7354 27.052L57.1183 26.2651L53.5642 29.0526L54.1813 29.8395ZM57.8509 26.9234C58.3971 26.0489 58.7072 25.2313 58.5838 24.4586C58.4561 23.6593 57.8934 23.0627 57.0743 22.5713L56.5598 23.4287C57.2651 23.8519 57.5359 24.2382 57.5963 24.6164C57.661 25.0212 57.5138 25.5755 57.0028 26.3937L57.8509 26.9234ZM48.3789 47.024L41.528 53.7405L42.2281 54.4546L49.0789 47.7381L48.3789 47.024ZM56.9268 26.6585C56.9268 34.3153 53.846 41.6641 48.3789 47.024L49.0789 47.7381C54.7383 42.1897 57.9268 34.5834 57.9268 26.6585H56.9268ZM42.3781 54.0976C42.3781 44.6279 46.7301 35.6836 54.1813 29.8395L53.5642 29.0526C45.8713 35.0863 41.3781 44.3207 41.3781 54.0976H42.3781ZM10.3834 3.5953C-2.21575 13.381 -2.91353 32.1744 8.92525 42.8675L9.59554 42.1253C-1.78145 31.8494 -1.1109 13.7891 10.9968 4.38506L10.3834 3.5953ZM26.8282 3.0159C21.9346 -0.693628 15.1758 -0.126953 10.3834 3.5953L10.9968 4.38506C15.4906 0.894693 21.7474 0.419292 26.2241 3.81281L26.8282 3.0159ZM67.6886 4.72936C63.2367 0.328049 56.3503 -1.18762 50.924 2.12071L51.4445 2.97453C56.4004 -0.0469809 62.7904 1.29296 66.9856 5.4405L67.6886 4.72936ZM66.9067 43.5252C78.2265 33.2021 78.5833 15.5002 67.6886 4.72936L66.9856 5.4405C77.473 15.8088 77.1296 32.849 66.2329 42.7863L66.9067 43.5252Z" fill="black"/>
</svg>
