<svg width="100" height="80" viewBox="0 0 100 80" fill="none" xmlns="http://www.w3.org/2000/svg">
<path d="M10.4681 43.854L22.9113 70.9577L35.3545 43.854C39.5186 34.7839 32.8916 24.4494 22.9113 24.4494C12.931 24.4494 6.30398 34.7839 10.4681 43.854Z" fill="white" stroke="#4F4396" stroke-width="2"/>
<ellipse cx="22.9114" cy="38.4808" rx="4.81013" ry="4.81012" fill="#252551"/>
<path d="M64.6455 20.4045L77.0887 47.5081L89.532 20.4044C93.696 11.3343 87.069 0.999855 77.0887 0.999855C67.1084 0.999855 60.4814 11.3343 64.6455 20.4045Z" fill="white" stroke="#4F4396" stroke-width="2"/>
<ellipse cx="77.0881" cy="15.0314" rx="4.81013" ry="4.81012" fill="#252551"/>
<path d="M29.7263 68.6147L54.1667 68.6146C57.7266 68.6145 59.5129 64.3136 57.0005 61.7916L52.5564 57.3304C50.0439 54.8083 51.8303 50.5074 55.3902 50.5074L71.0126 50.5074" stroke="#4F4396" stroke-dasharray="2 2"/>
</svg>
