<svg width="150" height="72" viewBox="0 0 200 72" fill="none" xmlns="http://www.w3.org/2000/svg">
<path d="M41.9207 32.1646C35.5183 25.3049 40.8537 20.4268 52.1341 26.0671L52.1341 37.5H43.2927L41.9207 32.1646Z" fill="#BC508D"/>
<path d="M52.6594 23.3194C52.7021 23.1243 52.7484 23.003 52.7868 22.9406C53.0325 23.0992 53.2868 23.1999 53.5117 23.2542C53.737 23.3086 53.9611 23.3231 54.1245 23.2786C54.1951 23.2593 54.3328 23.2074 54.3898 23.0626C54.4556 22.8957 54.3619 22.7575 54.3001 22.692C54.2325 22.6202 54.1366 22.558 54.0265 22.502C54.4732 22.2212 54.8097 22.1339 55.0471 22.1636C55.3107 22.1965 55.5306 22.3887 55.6677 22.8428C55.806 23.301 55.838 23.9721 55.7442 24.8275C55.6559 25.6332 55.4581 26.5853 55.1486 27.6464H52.5254C52.5253 27.6437 52.5252 27.641 52.5251 27.6382C52.5185 27.4821 52.5103 27.2594 52.5031 26.9941C52.4889 26.4629 52.4795 25.7629 52.4984 25.0832C52.5174 24.3988 52.5648 23.7521 52.6594 23.3194Z" fill="#E462AB" stroke="black" stroke-width="0.5"/>
<path d="M64.1564 38.5244H50.8049V26.0592C52.4928 26.1924 54.5919 25.8962 56.6226 25.4041C58.9014 24.8518 61.1578 24.0368 62.755 23.2346C63.5469 22.8369 64.2118 22.4252 64.6337 22.0294C64.7371 21.9324 64.8365 21.8267 64.9215 21.7128L64.1564 38.5244Z" fill="#E462AB" stroke="black"/>
<path d="M41.9208 32.1646L42.7804 46.6928C43.1374 52.7258 48.5971 57.1505 54.5732 56.25L59.4513 37.1951C57.4695 32.9268 46.3415 30.1829 41.9208 32.1646Z" fill="#E462AB"/>
<path d="M41.9208 32.1646L42.7804 46.6928C43.1374 52.7258 48.5971 57.1505 54.5732 56.25V56.25L59.4513 37.1951C57.4695 32.9268 46.3415 30.1829 41.9208 32.1646ZM41.9208 32.1646C35.6707 25.7622 39.5 20.5 51 26" stroke="black"/>
<path d="M70.4268 28.6585L66.8728 31.446C59.3007 37.3849 54.8781 46.4743 54.8781 56.0976L61.7289 49.381C67.2921 43.9269 70.4268 36.4494 70.4268 28.6585Z" fill="#E462AB"/>
<path d="M79.5698 45.1557L79.2329 44.7863L79.5698 45.1557ZM64.1842 4.54762L63.924 4.12071L64.1842 4.54762ZM51.5244 18.2927L51.1143 18.5788L51.5763 19.2408L51.9632 18.5324L51.5244 18.2927ZM39.5262 5.41435L39.8282 5.0159L39.5262 5.41435ZM22.2604 44.4964L22.5955 44.1253L22.2604 44.4964ZM47.2561 67.0732L46.921 67.4442L47.3427 67.8251L47.6668 67.3584L47.2561 67.0732ZM66.8728 31.446L67.1813 31.8395L66.8728 31.446ZM70.0743 24.5713C69.8375 24.4292 69.5304 24.506 69.3883 24.7428C69.2463 24.9795 69.323 25.2867 69.5598 25.4287L70.0743 24.5713ZM61.7289 49.381L62.0789 49.7381L61.7289 49.381ZM23.6901 5.99018L23.9968 6.38506L23.6901 5.99018ZM80.3371 7.08493L80.6886 6.72936L80.3371 7.08493ZM51.8613 71.1012L79.9067 45.5252L79.2329 44.7863L51.1875 70.3623L51.8613 71.1012ZM63.924 4.12071C58.2021 7.60924 54.6598 11.5093 51.0856 18.053L51.9632 18.5324C55.466 12.1194 58.8936 8.35883 64.4445 4.97453L63.924 4.12071ZM51.9344 18.0066C47.9179 12.2505 44.5228 8.57454 39.8282 5.0159L39.2241 5.81281C43.8185 9.29555 47.1442 12.8892 51.1143 18.5788L51.9344 18.0066ZM21.9252 44.8675L46.921 67.4442L47.5912 66.7021L22.5955 44.1253L21.9252 44.8675ZM47.6668 67.3584L55.2887 56.3828L54.4674 55.8124L46.8454 66.788L47.6668 67.3584ZM67.1813 31.8395L70.7354 29.052L70.1183 28.2651L66.5642 31.0526L67.1813 31.8395ZM70.8509 28.9234C71.3971 28.0489 71.7072 27.2313 71.5838 26.4586C71.4561 25.6593 70.8934 25.0627 70.0743 24.5713L69.5598 25.4287C70.2651 25.8519 70.5359 26.2382 70.5963 26.6164C70.661 27.0212 70.5138 27.5755 70.0028 28.3937L70.8509 28.9234ZM61.3789 49.024L54.528 55.7405L55.2281 56.4546L62.0789 49.7381L61.3789 49.024ZM69.9268 28.6585C69.9268 36.3153 66.846 43.6641 61.3789 49.024L62.0789 49.7381C67.7383 44.1897 70.9268 36.5834 70.9268 28.6585H69.9268ZM55.3781 56.0976C55.3781 46.6279 59.7301 37.6836 67.1813 31.8395L66.5642 31.0526C58.8713 37.0863 54.3781 46.3207 54.3781 56.0976H55.3781ZM23.3834 5.5953C10.7842 15.381 10.0865 34.1744 21.9252 44.8675L22.5955 44.1253C11.2185 33.8494 11.8891 15.7891 23.9968 6.38506L23.3834 5.5953ZM39.8282 5.0159C34.9346 1.30637 28.1758 1.87305 23.3834 5.5953L23.9968 6.38506C28.4906 2.89469 34.7474 2.41929 39.2241 5.81281L39.8282 5.0159ZM80.6886 6.72936C76.2367 2.32805 69.3503 0.812376 63.924 4.12071L64.4445 4.97453C69.4004 1.95302 75.7904 3.29296 79.9856 7.4405L80.6886 6.72936ZM79.9067 45.5252C91.2265 35.2021 91.5833 17.5002 80.6886 6.72936L79.9856 7.4405C90.473 17.8088 90.1296 34.849 79.2329 44.7863L79.9067 45.5252Z" fill="black"/>
<path d="M90.8415 21.3608C92.0676 19.8728 94.0396 18.7642 97.1833 17.6776C97.2953 19.5126 97.0005 21.2582 95.8995 22.8514C94.7379 24.5322 92.6339 26.1094 88.9877 27.4185C89.1113 24.6724 89.6519 22.8046 90.8415 21.3608Z" fill="#007112" stroke="black"/>
<path d="M93.0899 21.7858C90.5592 23.3925 89.5802 24.7235 88.6939 27.9402" stroke="black" stroke-linecap="round"/>
<path d="M16.3763 22.3608C17.6024 20.8728 19.5744 19.7642 22.7181 18.6776C22.8301 20.5126 22.5353 22.2582 21.4342 23.8514C20.2727 25.5322 18.1687 27.1094 14.5225 28.4185C14.6461 25.6724 15.1867 23.8046 16.3763 22.3608Z" fill="#007112" stroke="black"/>
<path d="M19.0899 22.4956C16.5592 24.1023 15.5802 25.4333 14.6939 28.65" stroke="black" stroke-linecap="round"/>
<path d="M84.8638 25.3608C83.6378 23.8728 81.6658 22.7642 78.5221 21.6776C78.4101 23.5126 78.7049 25.2582 79.8059 26.8514C80.9675 28.5322 83.0715 30.1094 86.7176 31.4185C86.594 28.6724 86.0535 26.8046 84.8638 25.3608Z" fill="#007112" stroke="black"/>
<path d="M82.6155 25.7858C85.1462 27.3925 86.1252 28.7235 87.0115 31.9402" stroke="black" stroke-linecap="round"/>
<path d="M10.9457 26.4904C9.5841 25.4115 7.67328 24.7302 4.50068 23.6801C4.51479 27.2367 7.83993 30.9326 13.9447 31.5846C13.0762 28.9445 12.245 27.52 10.9457 26.4904Z" fill="#007112" stroke="black"/>
<path d="M9.21861 28.3354C9.67593 28.3354 12.4198 28.3354 14.4191 31.9585" stroke="black" stroke-linecap="round"/>
<path d="M119.36 21.2V24.92H107.56V33.12H116.76V36.84H107.56V49H103V21.2H119.36ZM128.146 19.4V49H123.586V19.4H128.146ZM143.693 49.36C141.613 49.36 139.733 48.8933 138.053 47.96C136.373 47 135.053 45.6667 134.093 43.96C133.133 42.2267 132.653 40.2267 132.653 37.96C132.653 35.72 133.146 33.7333 134.133 32C135.119 30.2667 136.466 28.9333 138.173 28C139.879 27.0667 141.786 26.6 143.893 26.6C145.999 26.6 147.906 27.0667 149.613 28C151.319 28.9333 152.666 30.2667 153.653 32C154.639 33.7333 155.133 35.72 155.133 37.96C155.133 40.2 154.626 42.1867 153.613 43.92C152.599 45.6533 151.213 47 149.453 47.96C147.719 48.8933 145.799 49.36 143.693 49.36ZM143.693 45.4C144.866 45.4 145.959 45.12 146.973 44.56C148.013 44 148.853 43.16 149.493 42.04C150.133 40.92 150.453 39.56 150.453 37.96C150.453 36.36 150.146 35.0133 149.533 33.92C148.919 32.8 148.106 31.96 147.093 31.4C146.079 30.84 144.986 30.56 143.813 30.56C142.639 30.56 141.546 30.84 140.533 31.4C139.546 31.96 138.759 32.8 138.173 33.92C137.586 35.0133 137.293 36.36 137.293 37.96C137.293 40.3333 137.893 42.1733 139.093 43.48C140.319 44.76 141.853 45.4 143.693 45.4ZM164.201 30.16C164.867 29.04 165.747 28.1733 166.841 27.56C167.961 26.92 169.281 26.6 170.801 26.6V31.32H169.641C167.854 31.32 166.494 31.7733 165.561 32.68C164.654 33.5867 164.201 35.16 164.201 37.4V49H159.641V26.96H164.201V30.16ZM173.472 37.88C173.472 35.6667 173.926 33.7067 174.832 32C175.766 30.2933 177.019 28.9733 178.592 28.04C180.192 27.08 181.952 26.6 183.872 26.6C185.606 26.6 187.112 26.9467 188.392 27.64C189.699 28.3067 190.739 29.1467 191.512 30.16V26.96H196.112V49H191.512V45.72C190.739 46.76 189.686 47.6267 188.352 48.32C187.019 49.0133 185.499 49.36 183.792 49.36C181.899 49.36 180.166 48.88 178.592 47.92C177.019 46.9333 175.766 45.5733 174.832 43.84C173.926 42.08 173.472 40.0933 173.472 37.88ZM191.512 37.96C191.512 36.44 191.192 35.12 190.552 34C189.939 32.88 189.126 32.0267 188.112 31.44C187.099 30.8533 186.006 30.56 184.832 30.56C183.659 30.56 182.566 30.8533 181.552 31.44C180.539 32 179.712 32.84 179.072 33.96C178.459 35.0533 178.152 36.36 178.152 37.88C178.152 39.4 178.459 40.7333 179.072 41.88C179.712 43.0267 180.539 43.9067 181.552 44.52C182.592 45.1067 183.686 45.4 184.832 45.4C186.006 45.4 187.099 45.1067 188.112 44.52C189.126 43.9333 189.939 43.08 190.552 41.96C191.192 40.8133 191.512 39.48 191.512 37.96Z" fill="url(#paint0_linear_6_2)"/>
<defs>
<linearGradient id="paint0_linear_6_2" x1="94" y1="18" x2="200" y2="49" gradientUnits="userSpaceOnUse">
<stop offset="0.0260417" stop-color="#4F4396"/>
<stop offset="0.4375" stop-color="#E462AB"/>
<stop offset="0.697917" stop-color="#BC508D"/>
<stop offset="1" stop-color="#FFE68E"/>
</linearGradient>
</defs>
</svg>
