<svg width="100" height="100" viewBox="0 0 100 100" fill="none" xmlns="http://www.w3.org/2000/svg">
<path d="M48.3203 4.88285C45.8984 7.2266 43.0078 11.211 41.1719 14.8438C39.2969 18.4766 38.3594 21.4063 37.8906 24.7266C37.7734 25.586 37.6562 26.3282 37.6562 26.3672C37.6562 26.3672 36.9531 25.9766 36.2109 25.4297C31.9922 22.5391 26.4844 20.5469 21.6797 20.1563L20.1953 20.0391L20.3125 21.2891C20.8203 26.5235 22.9297 32.2266 25.8203 36.2891L26.875 37.7735H26.3672C25.1953 37.7735 21.6016 38.5157 19.7656 39.1407C14.8437 40.7813 9.53125 44.0235 5.35156 47.9297C3.94531 49.2578 3.90625 49.2969 3.90625 50.1172C3.90625 50.9766 3.94531 51.0157 5.35156 52.3047C6.13281 53.0469 7.69531 54.336 8.78906 55.1563C14.1016 59.1407 19.0234 61.3672 24.6875 62.2657L26.5234 62.5391L25.625 63.9063C23.125 67.6563 21.2891 72.5782 20.6641 77.2266C20.5078 78.3594 20.3906 79.336 20.3906 79.4532C20.3906 79.6875 21.8359 79.5313 24.4141 79.0625C28.3594 78.3594 32.6953 76.6016 35.9766 74.4141L37.6172 73.3203L37.6562 73.7891C37.8125 75.5078 38.2031 77.5782 38.6328 79.1797C40.0781 84.336 43.5938 90.3516 47.6562 94.6485C49.1016 96.1719 49.1406 96.211 49.9609 96.211C50.7812 96.211 50.8594 96.1719 52.0703 94.8828C56.1719 90.625 59.7656 84.6094 61.2109 79.4922C61.7578 77.6563 62.1875 75.1172 62.1875 73.9844C62.1875 73.5157 62.2656 73.086 62.3438 73.0469C62.4219 73.0078 63.125 73.3985 63.9063 73.9454C68.125 76.875 73.3984 78.711 79.1016 79.336L79.8828 79.4141L79.7656 78.3985C79.2969 73.4766 77.2266 67.5 74.7656 63.8672C74.2969 63.1641 73.9453 62.5782 73.9844 62.5391C74.0234 62.5 74.7656 62.3438 75.6641 62.2266C81.9922 61.211 88.3203 57.9688 94.1016 52.7735C95.7812 51.2891 96.2109 50.586 96.0156 49.7657C95.7422 48.6719 90.8594 44.6094 87.2266 42.461C82.7734 39.8047 77.9688 38.2032 73.4375 37.7735L72.8516 37.7344L74.0234 36.0938C75.5469 33.9844 76.9922 31.0938 77.9688 28.086C78.7891 25.6641 79.5312 22.1094 79.5312 20.586C79.5312 19.6875 79.8828 19.7266 76.8359 20.1563C72.5 20.7032 67.7344 22.5391 64.0234 25.0391L62.3047 26.1719L61.9922 24.2969C61.4062 20.625 60.1172 17.0703 58.0469 13.4766C56.1719 10.1953 53.4766 6.67972 51.4453 4.76566C50.1562 3.51566 49.7266 3.55472 48.3203 4.88285ZM52.7734 11.4453C59.1016 20.1953 60.5469 28.4766 57.2266 36.7578C56.4844 38.6719 55.625 40.3907 55.3906 40.5469C55.2734 40.586 54.8047 40.4297 54.2969 40.1953C51.6797 38.8672 47.9297 38.9453 45.1562 40.3516C44.6094 40.625 44.5703 40.625 44.2969 40.1953C43.7891 39.4141 42.4609 36.211 41.9922 34.6875C41.1719 31.9141 41.0547 31.1328 41.0547 27.9297C41.0547 25.1172 41.0938 24.6875 41.6016 22.7735C42.7734 18.2422 45.1562 13.8282 48.6719 9.4141L49.8438 7.96878L50.7812 8.98441C51.2891 9.53128 52.1875 10.625 52.7734 11.4453ZM75.2734 25.3125C74.0234 30 71.875 33.8672 68.9844 36.7578L67.6953 38.0078L65.625 38.5157C63.9453 38.9453 62.4219 39.4532 59.3359 40.7422C59.2187 40.7813 59.4922 40 59.9219 38.9453C60.8594 36.7578 61.5625 34.4532 61.9141 32.3047C62.2266 30.5469 62.4609 30.1953 64.7266 28.5157C67.2656 26.6407 70.2734 25.1563 73.5547 24.2188C74.5703 23.9453 75.4297 23.711 75.5078 23.711C75.6641 23.6719 75.5469 24.4141 75.2734 25.3125ZM26.9531 24.6875C30.8594 25.9375 34.1016 27.7735 36.5234 30.0391L37.7344 31.1719L38.0859 32.9297C38.5156 35.1172 39.1797 37.1485 40.0391 39.2188C40.4297 40.0782 40.7031 40.8203 40.6641 40.8203C40.625 40.8203 39.7266 40.4688 38.75 40.0391C36.7188 39.1797 35.0781 38.6328 33.1641 38.2422C31.6406 37.9297 31.3281 37.6953 29.9219 36.0938C27.8125 33.6328 26.2109 30.7422 25.0781 27.3047C24.1016 24.375 24.0625 24.0235 24.5312 24.0235C24.7656 24.0625 25.8203 24.336 26.9531 24.6875ZM32.1094 41.4453C34.1016 41.875 36.875 42.8125 38.7891 43.7891C39.7266 44.2578 40.5078 44.6485 40.5469 44.6875C40.5859 44.7266 40.3906 45.3125 40.1172 45.9766C39.7266 46.9532 39.6094 47.5782 39.5312 49.1016C39.4531 51.211 39.7266 52.6563 40.5078 54.2969C40.7422 54.8047 40.9375 55.2735 40.9375 55.3125C40.8984 55.3516 40.0391 55.7813 39.0234 56.2891C36.9531 57.3438 34.2188 58.2813 32.0312 58.75C30.0781 59.1797 26.25 59.1797 24.1406 58.75C19.4141 57.8125 14.1797 55.2344 9.60938 51.4844C8.75 50.7813 8.08594 50.1563 8.08594 50.0782C8.08594 49.8047 10.9766 47.5391 13.0078 46.211C19.5312 41.836 26.0547 40.2344 32.1094 41.4453ZM75.9766 41.4453C80.5078 42.3047 85.8203 44.961 90.3516 48.6719C91.1719 49.336 91.875 49.961 91.875 50.0782C91.875 50.1563 91.2109 50.8203 90.3516 51.4844C85.7812 55.1953 80.5078 57.8516 75.8203 58.75C73.9453 59.1407 70.0781 59.1797 68.3984 58.8282C65.6641 58.3203 62.0703 56.9922 59.8047 55.7422L58.8672 55.1953L59.375 54.1797C60.1562 52.6172 60.3516 51.6797 60.3516 49.6485C60.3516 48.0469 60.2734 47.5391 59.8828 46.4063C59.6094 45.6641 59.375 45 59.375 44.8828C59.2969 44.6875 62.0703 43.2813 63.9063 42.6172C68.0859 41.0547 71.875 40.6641 75.9766 41.4453ZM52.9297 43.2422C54.3359 43.9453 55.625 45.1953 56.3281 46.7188C56.8359 47.8125 56.9141 48.086 56.9141 49.6485C56.9141 51.7969 56.4453 53.0078 55.1953 54.375C53.5547 56.1719 51.0938 57.0703 48.8672 56.6797C45.7422 56.1328 43.4766 53.8672 42.9297 50.7422C42.3438 47.4219 44.5312 43.9453 47.8516 42.8516C48.3203 42.6953 49.2188 42.6172 50.2344 42.6563C51.6016 42.7344 52.0312 42.8125 52.9297 43.2422ZM55.9766 60.625C56.9531 62.5391 57.8516 64.9219 58.3594 67.0313C58.7891 68.75 58.8281 69.375 58.8281 71.875C58.8281 75.8594 58.2422 78.5547 56.4453 82.461C55.1562 85.2344 52.6562 89.1016 50.7812 91.211L49.9219 92.1485L49.0234 91.0938C45.5469 87.0313 42.8125 81.9922 41.6016 77.3829C41.0938 75.4297 41.0547 75.0782 41.0547 72.1485C41.0547 68.711 41.2109 67.6953 42.2266 64.6875C42.6953 63.2813 44.2188 59.9219 44.6875 59.2188C44.8047 59.0235 45.1953 59.1016 46.4844 59.5313C47.8516 60 48.3984 60.0782 49.8047 60.0782C51.6016 60.0782 53.125 59.7657 54.2578 59.1797C55.0391 58.7891 55.0781 58.7891 55.9766 60.625ZM40.0391 60.9766C39.2188 62.8516 38.3594 65.625 38.0469 67.3047C37.8516 68.3204 37.7344 68.5547 36.9922 69.2969C34.4531 71.7969 30.3906 73.9453 26.0547 75.1563C25.1953 75.3907 24.4531 75.5469 24.4141 75.5079C24.2969 75.3907 24.8437 73.3985 25.4687 71.6797C26.6016 68.4375 28.9844 64.4532 30.7031 62.8516C31.1719 62.3828 31.6406 62.2266 33.1641 61.9141C35.3516 61.4453 37.2266 60.8203 39.1406 60C39.8828 59.6875 40.5469 59.375 40.625 59.375C40.7031 59.375 40.4297 60.1172 40.0391 60.9766ZM60.7813 60C63.2422 61.0938 67.4219 62.2657 68.7891 62.2657C69.6484 62.2657 71.875 65.1563 73.4766 68.3985C74.2578 70 75.5469 73.5157 75.7812 74.8047L75.8984 75.3907L75.1562 75.1953C73.75 74.8828 70.7031 73.7891 69.1797 73.086C67.0703 72.1094 64.5703 70.3907 63.1641 68.9844C62.0312 67.8516 61.9531 67.6953 61.7188 66.6016C61.3672 64.961 60.6641 62.8516 59.8828 60.9766C59.4922 60.1172 59.2188 59.375 59.2969 59.375C59.3359 59.375 60 59.6485 60.7813 60Z" fill="#4F4396"/>
</svg>
