<svg width="100" height="75" viewBox="0 0 100 75" fill="none" xmlns="http://www.w3.org/2000/svg">
<path d="M68.1167 53.05C67.5667 52.6667 66.8333 52.8167 66.45 53.35C66.0833 53.8833 65.6667 54.3833 65.2167 54.8667C64.9167 55.1833 64.5 55.5833 64.05 55.9667C63.55 56.4 63.4833 57.15 63.9167 57.65C64.15 57.9333 64.4833 58.0667 64.8333 58.0667C65.1 58.0667 65.3833 57.9667 65.6167 57.7833C66.15 57.3333 66.6167 56.8833 66.9833 56.4833C67.5167 55.9167 68 55.3167 68.4333 54.6833C68.8 54.1667 68.6667 53.4167 68.1167 53.05Z" fill="#4F4396"/>
<path d="M62.9 58.4167C62.6167 57.8167 61.9 57.5667 61.3 57.8333L61.2667 57.85C60.6667 58.1167 60.3833 58.8167 60.65 59.4333C60.85 59.8833 61.2833 60.15 61.75 60.15C61.9167 60.15 62.0833 60.1167 62.2333 60.05C62.2667 60.0333 62.2833 60.0167 62.3167 60.0167C62.9167 59.7333 63.1833 59.0167 62.9 58.4167Z" fill="#4F4396"/>
<path d="M77.1167 10H22.9333C20.9667 10 19.35 11.6 19.35 13.5833V47.1667C19.35 49.1333 20.95 50.75 22.9333 50.75H48.1667C49.2333 55.2833 51.65 58.4833 53.7667 60.5333C56.85 63.5333 60.3833 65.1333 61.75 65.1333C63.1167 65.1333 66.65 63.5333 69.7333 60.5333C71.85 58.4833 74.2667 55.2833 75.3333 50.75H77.1C79.0667 50.75 80.6833 49.15 80.6833 47.1667V13.5833C80.6833 11.6167 79.0833 10 77.1167 10ZM73.5 45.8333C73.5 52.15 70.5833 56.3333 68.15 58.7333C65.25 61.5833 62.2833 62.6833 61.75 62.7167C61.2333 62.6833 58.25 61.5833 55.35 58.7333C52.9167 56.3333 50 52.15 50 45.8333V39.9333C54.1167 38.7333 57.9833 37.1 61.75 34.9667C65.4333 37.05 69.4667 38.7667 73.5 39.9333V45.8333ZM78.3 47.1667C78.3 47.8167 77.7667 48.35 77.1167 48.35H75.7667C75.8667 47.55 75.9167 46.7167 75.9167 45.8333V39.0333C75.9167 38.5 75.55 38.0167 75.0333 37.8833C70.6833 36.7 66.3 34.8667 62.3667 32.5667C62 32.35 61.5333 32.35 61.15 32.5667C57.1 34.9333 52.9667 36.6667 48.4833 37.8833C47.9667 38.0333 47.6 38.5 47.6 39.0333V45.8333C47.6 46.7 47.65 47.55 47.75 48.35H22.9333C22.2833 48.35 21.75 47.8167 21.75 47.1667V26.7833H78.3V47.1667ZM78.3 24.3833H21.75V19.5833H78.3V24.3833ZM78.3 17.2H21.75V13.5833C21.75 12.9333 22.2833 12.4 22.9333 12.4H77.1167C77.7667 12.4 78.3 12.9333 78.3 13.5833V17.2Z" fill="#4F4396"/>
<path d="M33.7333 35.1666C33.0167 35.1666 32.3 35.3166 31.6333 35.5833C30.9833 35.3166 30.2833 35.1666 29.5333 35.1666C26.5667 35.1666 24.15 37.5833 24.15 40.55C24.15 43.5166 26.5667 45.9333 29.5333 45.9333C30.2833 45.9333 30.9833 45.7833 31.6333 45.5166C32.3 45.8 33 45.9333 33.7333 45.9333C36.7 45.9333 39.1167 43.5166 39.1167 40.55C39.1167 37.5833 36.7 35.1666 33.7333 35.1666ZM29.5333 43.55C27.8833 43.55 26.5333 42.2 26.5333 40.55C26.5333 38.9 27.8833 37.55 29.5333 37.55C31.1833 37.55 32.5333 38.9 32.5333 40.55C32.5333 42.2166 31.1833 43.55 29.5333 43.55ZM34.0167 43.5333C34.5833 42.6833 34.9167 41.65 34.9167 40.55C34.9167 39.45 34.5833 38.4166 34.0167 37.5666C35.5333 37.7166 36.7167 39 36.7167 40.55C36.7167 42.1 35.5333 43.3833 34.0167 43.5333Z" fill="#4F4396"/>
<path d="M31.5 29.7667H25.3333C24.6667 29.7667 24.1333 30.3001 24.1333 30.9667C24.1333 31.6334 24.6667 32.1667 25.3333 32.1667H31.5C32.1667 32.1667 32.7 31.6334 32.7 30.9667C32.7 30.3167 32.1667 29.7667 31.5 29.7667Z" fill="#4F4396"/>
<path d="M35.05 29.7667H35C34.3333 29.7667 33.8 30.3001 33.8 30.9667C33.8 31.6334 34.3333 32.1667 35 32.1667H35.05C35.7167 32.1667 36.25 31.6334 36.25 30.9667C36.25 30.3167 35.7 29.7667 35.05 29.7667Z" fill="#4F4396"/>
<path d="M68.3333 43.0833C67.8667 42.6166 67.1 42.6166 66.6333 43.0833L60.2333 49.4833L56.8833 46.1333C56.4167 45.6666 55.65 45.6666 55.1833 46.1333C54.7167 46.5999 54.7167 47.3666 55.1833 47.8333L59.3833 52.0333C59.6167 52.2666 59.9167 52.3833 60.2333 52.3833C60.55 52.3833 60.85 52.2666 61.0833 52.0333L68.3333 44.7833C68.8 44.2999 68.8 43.5499 68.3333 43.0833Z" fill="#4F4396"/>
</svg>
