<svg width="100" height="100" viewBox="0 0 100 100" fill="none" xmlns="http://www.w3.org/2000/svg">
<g clip-path="url(#clip0_2_149)">
<path d="M50.0005 15.2129C41.2921 15.2129 32.9592 18.4465 26.5368 24.3182C20.1563 30.1514 16.1918 38.0846 15.3739 46.6567C15.2901 47.5339 15.9334 48.3132 16.8106 48.3969C17.6926 48.4811 18.467 47.8374 18.5508 46.9598C20.1045 30.6805 33.6249 18.4043 50.0005 18.4043C67.4224 18.4043 81.5963 32.5782 81.5963 50.0001C81.5963 67.422 67.4224 81.5958 50.0005 81.5958C33.6245 81.5958 20.1041 69.3192 18.5508 53.0395C18.467 52.1622 17.6846 51.519 16.8108 51.6024C15.9332 51.6862 15.2901 52.4651 15.3737 53.3427C16.1916 61.9147 20.1557 69.8483 26.5362 75.6818C32.959 81.5534 41.2919 84.7872 50.0003 84.7872C69.182 84.7872 84.7877 69.1817 84.7877 49.9999C84.7877 30.818 69.1824 15.2129 50.0005 15.2129Z" fill="#4F4396"/>
<path d="M50.0001 21.5959C34.338 21.5959 21.5957 34.3382 21.5957 50.0003C21.5957 65.6624 34.338 78.4045 50.0001 78.4045C65.6622 78.4045 78.4045 65.6622 78.4045 50.0001C78.4045 34.338 65.6622 21.5959 50.0001 21.5959ZM61.1614 72.6035C58.2454 74.0492 55.012 74.9466 51.5958 75.1611V61.4675C51.5958 60.5863 50.8815 59.8718 50.0001 59.8718C49.1187 59.8718 48.4044 60.5863 48.4044 61.4675V75.1611C44.9882 74.9466 41.7548 74.0492 38.8388 72.6035V56.6847H61.1613V72.6035H61.1614ZM55.3925 43.9274L60.1753 53.4931H39.8249L44.6077 43.9274H55.3925ZM46.2034 40.7362V40.736L50.0001 33.143L53.7968 40.7362H46.2034ZM64.3529 70.7169V55.089C64.3529 55.0292 64.349 54.9704 64.3427 54.9126C64.3411 54.8984 64.3382 54.8843 64.3361 54.87C64.3298 54.8253 64.3226 54.7814 64.3128 54.7382C64.3091 54.7226 64.305 54.7071 64.3009 54.6915C64.29 54.6495 64.2781 54.6083 64.2642 54.5679C64.2589 54.5523 64.2531 54.5372 64.2474 54.522C64.2318 54.4814 64.2148 54.4417 64.196 54.4026C64.1917 54.3937 64.1888 54.3843 64.1843 54.3755L51.4273 28.8612C51.1567 28.3206 50.6044 27.9792 50.0001 27.9792C49.3956 27.9792 48.8431 28.3206 48.5729 28.8612L35.8159 54.3755C35.8114 54.3845 35.8085 54.3939 35.8042 54.4026C35.7856 54.4415 35.7686 54.4812 35.7532 54.5216C35.7475 54.5368 35.7417 54.5523 35.7364 54.5677C35.7223 54.6081 35.7102 54.6493 35.6997 54.6913C35.6956 54.7068 35.6911 54.7222 35.6878 54.738C35.678 54.7814 35.6708 54.8255 35.6645 54.8698C35.6626 54.8841 35.6596 54.8982 35.6579 54.9124C35.6514 54.9704 35.6477 55.0292 35.6477 55.0888V70.7167C29.0899 66.1595 24.7876 58.5736 24.7876 50.0003C24.7876 36.0979 36.0979 24.7876 50.0003 24.7876C63.9027 24.7876 75.213 36.0979 75.213 50.0003C75.2128 58.5734 70.9105 66.1593 64.3529 70.7169Z" fill="#4F4396"/>
</g>
<defs>
<clipPath id="clip0_2_149">
<rect width="100" height="100" fill="white"/>
</clipPath>
</defs>
</svg>
